<svg version="1.1" id="Layer_1" xmlns="http://www.w3.org/2000/svg" xmlns:xlink="http://www.w3.org/1999/xlink" x="0px" y="0px"
	 viewBox="0 0 301 124" enable-background="new 0 0 301 124" xml:space="preserve">
<title>Dataflow Icon</title>
<g id="Integrations-Leaf---SaaS" transform="translate(-708.000000, -178.000000)">
	<g id="Group" transform="translate(708.000000, 178.000000)">
		<ellipse id="Oval-21_6_" fill="#FDCF40" cx="258.7" cy="41.3" rx="3.8" ry="4"/>
		<g id="Layer_1_1_" transform="translate(182.000000, 0.000000)">
			<g>
				<ellipse fill="#FFD02A" cx="-19.3" cy="110.5" rx="3.8" ry="4"/>
				<ellipse fill="#FFD02A" cx="-144.9" cy="110.5" rx="3.8" ry="4"/>
				<ellipse fill="#FFD02A" cx="-161.6" cy="110.5" rx="3.8" ry="4"/>
				<ellipse fill="#FFD02A" cx="-172.9" cy="110.5" rx="3.8" ry="4"/>
				<ellipse fill="#FFD02A" cx="-59.9" cy="62.9" rx="3.8" ry="4"/>
				<ellipse fill="#FFD02A" cx="-73.5" cy="62.9" rx="3.8" ry="4"/>
				<ellipse fill="#FFD02A" cx="-161" cy="40.1" rx="3.8" ry="4"/>
				<ellipse fill="#FFD02A" cx="-115.2" cy="62.9" rx="3.8" ry="4"/>
				<ellipse fill="#FFD02A" cx="-176.8" cy="40.1" rx="3.8" ry="4"/>
				<path fill="#FFD02A" d="M63.1,11.6c-19,0-35.8,9.7-45.9,24.3H-147v7.9H12.7C10.4,48.8,8.7,54.1,8,59.7h-57.2v7.9H7.4
					c0,5.5,0.9,10.9,2.4,15.9h-190.4v7.9H12.9c9,18.8,28.1,31.7,50.2,31.7c30.8,0,55.6-25.1,55.6-55.8S93.7,11.6,63.1,11.6z"/>
			</g>
			<path id="Shape_1_" fill="#1E2023" d="M77.9,4.1c-23-8.6-49.5-1.4-65.1,17.6c-15.1,19-17.1,46.1-4.5,66.9s37.2,31.4,60.8,26.7
				c27-5.4,45.9-29.6,46.4-56.9C115.1,34.4,100.4,12.5,77.9,4.1L77.9,4.1z M75.2,109c-20.7,7.2-44.1,0.7-58.3-16
				C2.3,75.5,0.2,50,12.2,30.6c11.5-19,34-28.9,55.8-24.6c25,5,42.8,27.1,43,52.4C110.8,80.9,96.6,101.5,75.2,109L75.2,109z"/>
			<path id="Shape_2_" fill="#1E2023" d="M57.6,39.4c-10.4,0-18.9,8.6-18.9,19s8.6,19,18.9,19c10.6,0,18.5-8.8,18.9-19
				C76.1,48.2,68.5,39.4,57.6,39.4L57.6,39.4z M57.6,73c-7.9,0-14.4-6.6-14.4-14.5s6.5-14.5,14.4-14.5c8.1,0,14.2,6.6,14.4,14.5
				C71.8,66.2,65.8,73,57.6,73L57.6,73z"/>
			<path id="Shape_3_" fill="#1E2023" d="M60.8,23.5c-0.7,1.8-2.7,2.5-4.5,1.8c-1.8-0.7-2.5-2.7-1.8-4.5c0.7-1.8,2.7-2.5,4.5-1.8
				C60.8,19.7,61.7,21.7,60.8,23.5"/>
			<path id="Shape_4_" fill="#1E2023" d="M60.8,96.5c-0.7,1.8-2.7,2.5-4.5,1.8c-1.8-0.7-2.5-2.7-1.8-4.5c0.7-1.8,2.7-2.5,4.5-1.8
				C60.8,92.9,61.7,94.9,60.8,96.5"/>
			<path id="Shape_5_" fill="#1E2023" d="M92.8,62c-1.8-0.7-2.5-2.7-1.8-4.5c0.7-1.8,2.7-2.5,4.5-1.8c1.8,0.7,2.5,2.7,1.8,4.5
				C96.6,62,94.4,62.6,92.8,62"/>
			<path id="Shape_6_" fill="#1E2023" d="M19.8,62c-1.8-0.7-2.5-2.7-1.8-4.5c0.7-1.8,2.7-2.5,4.5-1.8c1.8,0.7,2.5,2.7,1.8,4.5
				C23.6,62,21.6,62.6,19.8,62"/>
			<path id="Shape_7_" fill="#1E2023" d="M84.7,36.2c-1.8,0.7-3.8-0.2-4.5-2c-0.7-1.8,0.2-3.8,2-4.5c1.8-0.7,3.8,0.2,4.5,2
				C87.4,33.5,86.5,35.5,84.7,36.2"/>
			<path id="Shape_8_" fill="#1E2023" d="M33.3,87.7c-1.8,0.7-3.8-0.2-4.5-2c-0.7-1.8,0.2-3.8,2-4.5c1.8-0.7,3.8,0.2,4.5,2
				C35.8,85,34.9,87,33.3,87.7"/>
			<path id="Shape_9_" fill="#1E2023" d="M91.2,48.2c-1.8,0-3.4-1.6-3.4-3.6c0-1.8,1.6-3.4,3.6-3.4c1.8,0,3.4,1.6,3.4,3.6
				C94.8,46.6,93.2,48.2,91.2,48.2"/>
			<path id="Shape_10_" fill="#1E2023" d="M24.1,76.2c-1.8,0-3.4-1.6-3.4-3.6c0-1.8,1.6-3.4,3.6-3.4c1.8,0,3.4,1.6,3.4,3.6
				C27.5,74.8,25.9,76.2,24.1,76.2"/>
			<path id="Shape_11_" fill="#1E2023" d="M89.2,74.4c-1.4-1.4-1.4-3.6,0-5c1.4-1.4,3.6-1.4,5,0s1.4,3.6,0,5
				C92.8,75.7,90.5,75.7,89.2,74.4"/>
			<path id="Shape_12_" fill="#1E2023" d="M21.4,47.9c-1.4-1.4-1.4-3.6,0-5c1.4-1.4,3.6-1.4,5,0c1.4,1.4,1.4,3.6,0,5
				C24.8,49.3,22.7,49.3,21.4,47.9"/>
			<path id="Shape_13_" fill="#1E2023" d="M67.8,92.5c0-1.8,1.6-3.4,3.6-3.4c1.8,0,3.4,1.6,3.4,3.6c0,1.8-1.6,3.4-3.6,3.4
				C69.4,96.1,67.8,94.5,67.8,92.5"/>
			<path id="Shape_14_" fill="#1E2023" d="M40.5,24.7c0-1.8,1.6-3.4,3.6-3.4c1.8,0,3.4,1.6,3.4,3.6c0,1.8-1.6,3.4-3.6,3.4
				C42.1,28.3,40.5,26.7,40.5,24.7"/>
			<path id="Shape_15_" fill="#1E2023" d="M41.2,90c1.4-1.4,3.6-1.4,5,0.2c1.4,1.6,1.4,3.6-0.2,5c-1.4,1.4-3.6,1.4-5,0
				S39.9,91.1,41.2,90"/>
			<path id="Shape_16_" fill="#1E2023" d="M69.4,22.4c1.4-1.4,3.6-1.4,5,0.2s1.4,3.6-0.2,5c-1.4,1.4-3.6,1.4-5,0S68,23.8,69.4,22.4"
				/>
			<path id="Shape_17_" fill="#1E2023" d="M80.2,85.9c-0.7-1.8,0.2-3.8,2-4.5c1.8-0.7,3.8,0.2,4.5,2c0.7,1.8-0.2,3.8-2,4.5
				C82.9,88.4,80.8,87.5,80.2,85.9"/>
			<path id="Shape_18_" fill="#1E2023" d="M28.8,34.2c-0.7-1.8,0.2-3.8,2-4.5c1.8-0.7,3.8,0.2,4.5,2c0.7,1.8-0.2,3.8-2,4.5
				S29.5,36,28.8,34.2"/>
		</g>
	</g>
</g>
</svg>
